<svg viewBox="0 0 1028.355712890625 399.9925842285156" xmlns="http://www.w3.org/2000/svg"><g><g><g><g><g><line x1="51.5625" y1="364.993" x2="46.5625" y2="364.993" style="visibility: inherit;" fill="rgb(0, 0, 0)" stroke="rgb(204, 204, 204)" stroke-width="1px"></line><line x1="51.5625" y1="324.4382222222223" x2="46.5625" y2="324.4382222222223" style="visibility: inherit;" fill="rgb(0, 0, 0)" stroke="rgb(204, 204, 204)" stroke-width="1px"></line><line x1="51.5625" y1="283.8834444444445" x2="46.5625" y2="283.8834444444445" style="visibility: inherit;" fill="rgb(0, 0, 0)" stroke="rgb(204, 204, 204)" stroke-width="1px"></line><line x1="51.5625" y1="243.3286666666667" x2="46.5625" y2="243.3286666666667" style="visibility: inherit;" fill="rgb(0, 0, 0)" stroke="rgb(204, 204, 204)" stroke-width="1px"></line><line x1="51.5625" y1="202.773888888889" x2="46.5625" y2="202.773888888889" style="visibility: inherit;" fill="rgb(0, 0, 0)" stroke="rgb(204, 204, 204)" stroke-width="1px"></line><line x1="51.5625" y1="162.21911111111115" x2="46.5625" y2="162.21911111111115" style="visibility: inherit;" fill="rgb(0, 0, 0)" stroke="rgb(204, 204, 204)" stroke-width="1px"></line><line x1="51.5625" y1="121.66433333333343" x2="46.5625" y2="121.66433333333343" style="visibility: inherit;" fill="rgb(0, 0, 0)" stroke="rgb(204, 204, 204)" stroke-width="1px"></line><line x1="51.5625" y1="81.10955555555563" x2="46.5625" y2="81.10955555555563" style="visibility: inherit;" fill="rgb(0, 0, 0)" stroke="rgb(204, 204, 204)" stroke-width="1px"></line><line x1="51.5625" y1="40.554777777777794" x2="46.5625" y2="40.554777777777794" style="visibility: inherit;" fill="rgb(0, 0, 0)" stroke="rgb(204, 204, 204)" stroke-width="1px"></line><line x1="51.5625" y1="0" x2="46.5625" y2="0" style="visibility: inherit;" fill="rgb(0, 0, 0)" stroke="rgb(204, 204, 204)" stroke-width="1px"></line></g><g transform="translate(41.5625, 0)"><text x="0" y="364.993" dx="0em" dy="0.3em" style="text-anchor: end; visibility: hidden; font-family: Roboto, sans-serif; font-size: 12px; font-weight: 200;" fill="rgb(33, 33, 33)" stroke="none" stroke-width="1px">0.65</text><text x="0" y="324.4382222222223" dx="0em" dy="0.3em" style="text-anchor: end; visibility: inherit; font-family: Roboto, sans-serif; font-size: 12px; font-weight: 200;" fill="rgb(33, 33, 33)" stroke="none" stroke-width="1px">0.7</text><text x="0" y="283.8834444444445" dx="0em" dy="0.3em" style="text-anchor: end; visibility: inherit; font-family: Roboto, sans-serif; font-size: 12px; font-weight: 200;" fill="rgb(33, 33, 33)" stroke="none" stroke-width="1px">0.75</text><text x="0" y="243.3286666666667" dx="0em" dy="0.3em" style="text-anchor: end; visibility: inherit; font-family: Roboto, sans-serif; font-size: 12px; font-weight: 200;" fill="rgb(33, 33, 33)" stroke="none" stroke-width="1px">0.8</text><text x="0" y="202.773888888889" dx="0em" dy="0.3em" style="text-anchor: end; visibility: inherit; font-family: Roboto, sans-serif; font-size: 12px; font-weight: 200;" fill="rgb(33, 33, 33)" stroke="none" stroke-width="1px">0.85</text><text x="0" y="162.21911111111115" dx="0em" dy="0.3em" style="text-anchor: end; visibility: inherit; font-family: Roboto, sans-serif; font-size: 12px; font-weight: 200;" fill="rgb(33, 33, 33)" stroke="none" stroke-width="1px">0.9</text><text x="0" y="121.66433333333343" dx="0em" dy="0.3em" style="text-anchor: end; visibility: inherit; font-family: Roboto, sans-serif; font-size: 12px; font-weight: 200;" fill="rgb(33, 33, 33)" stroke="none" stroke-width="1px">0.95</text><text x="0" y="81.10955555555563" dx="0em" dy="0.3em" style="text-anchor: end; visibility: inherit; font-family: Roboto, sans-serif; font-size: 12px; font-weight: 200;" fill="rgb(33, 33, 33)" stroke="none" stroke-width="1px">1</text><text x="0" y="40.554777777777794" dx="0em" dy="0.3em" style="text-anchor: end; visibility: inherit; font-family: Roboto, sans-serif; font-size: 12px; font-weight: 200;" fill="rgb(33, 33, 33)" stroke="none" stroke-width="1px">1.05</text><text x="0" y="0" dx="0em" dy="0.3em" style="text-anchor: end; visibility: hidden; font-family: Roboto, sans-serif; font-size: 12px; font-weight: 200;" fill="rgb(33, 33, 33)" stroke="none" stroke-width="1px">1.1</text></g><line x1="51.5625" y1="0" x2="51.5625" y2="364.993" fill="rgb(0, 0, 0)" stroke="rgb(204, 204, 204)" stroke-width="1px"></line></g></g><g transform="translate(51, 0)" clip-path="url(#clip_0)"><clipPath id="clip_0"><rect width="976" height="364"></rect></clipPath><g><g><g><line x1="0" y1="0" x2="0" y2="364.993" fill="rgb(0, 0, 0)" stroke="rgb(66, 66, 66)" stroke-width="1px" opacity="0.25"></line><line x1="108.53305555555553" y1="0" x2="108.53305555555553" y2="364.993" fill="rgb(0, 0, 0)" stroke="rgb(66, 66, 66)" stroke-width="1px" opacity="0.25"></line><line x1="217.06611111111107" y1="0" x2="217.06611111111107" y2="364.993" fill="rgb(0, 0, 0)" stroke="rgb(66, 66, 66)" stroke-width="1px" opacity="0.25"></line><line x1="325.59916666666663" y1="0" x2="325.59916666666663" y2="364.993" fill="rgb(0, 0, 0)" stroke="rgb(66, 66, 66)" stroke-width="1px" opacity="0.25"></line><line x1="434.13222222222214" y1="0" x2="434.13222222222214" y2="364.993" fill="rgb(0, 0, 0)" stroke="rgb(66, 66, 66)" stroke-width="1px" opacity="0.25"></line><line x1="542.6652777777778" y1="0" x2="542.6652777777778" y2="364.993" fill="rgb(0, 0, 0)" stroke="rgb(66, 66, 66)" stroke-width="1px" opacity="0.25"></line><line x1="651.1983333333333" y1="0" x2="651.1983333333333" y2="364.993" fill="rgb(0, 0, 0)" stroke="rgb(66, 66, 66)" stroke-width="1px" opacity="0.25"></line><line x1="759.7313888888888" y1="0" x2="759.7313888888888" y2="364.993" fill="rgb(0, 0, 0)" stroke="rgb(66, 66, 66)" stroke-width="1px" opacity="0.25"></line><line x1="868.2644444444443" y1="0" x2="868.2644444444443" y2="364.993" fill="rgb(0, 0, 0)" stroke="rgb(66, 66, 66)" stroke-width="1px" opacity="0.25"></line><line x1="976.7974999999999" y1="0" x2="976.7974999999999" y2="364.993" fill="rgb(0, 0, 0)" stroke="rgb(66, 66, 66)" stroke-width="1px" opacity="0.25"></line></g><g><line x1="0" y1="364.993" x2="976.7974999999999" y2="364.993" fill="rgb(0, 0, 0)" stroke="rgb(66, 66, 66)" stroke-width="1px" opacity="0.25"></line><line x1="0" y1="324.4382222222223" x2="976.7974999999999" y2="324.4382222222223" fill="rgb(0, 0, 0)" stroke="rgb(66, 66, 66)" stroke-width="1px" opacity="0.25"></line><line x1="0" y1="283.8834444444445" x2="976.7974999999999" y2="283.8834444444445" fill="rgb(0, 0, 0)" stroke="rgb(66, 66, 66)" stroke-width="1px" opacity="0.25"></line><line x1="0" y1="243.3286666666667" x2="976.7974999999999" y2="243.3286666666667" fill="rgb(0, 0, 0)" stroke="rgb(66, 66, 66)" stroke-width="1px" opacity="0.25"></line><line x1="0" y1="202.773888888889" x2="976.7974999999999" y2="202.773888888889" fill="rgb(0, 0, 0)" stroke="rgb(66, 66, 66)" stroke-width="1px" opacity="0.25"></line><line x1="0" y1="162.21911111111115" x2="976.7974999999999" y2="162.21911111111115" fill="rgb(0, 0, 0)" stroke="rgb(66, 66, 66)" stroke-width="1px" opacity="0.25"></line><line x1="0" y1="121.66433333333343" x2="976.7974999999999" y2="121.66433333333343" fill="rgb(0, 0, 0)" stroke="rgb(66, 66, 66)" stroke-width="1px" opacity="0.25"></line><line x1="0" y1="81.10955555555563" x2="976.7974999999999" y2="81.10955555555563" fill="rgb(0, 0, 0)" stroke="rgb(66, 66, 66)" stroke-width="1px" opacity="0.25"></line><line x1="0" y1="40.554777777777794" x2="976.7974999999999" y2="40.554777777777794" fill="rgb(0, 0, 0)" stroke="rgb(66, 66, 66)" stroke-width="1px" opacity="0.25"></line><line x1="0" y1="0" x2="976.7974999999999" y2="0" fill="rgb(0, 0, 0)" stroke="rgb(66, 66, 66)" stroke-width="1px" opacity="0.25"></line></g></g></g><g><g><line x1="0" y1="892.205111111111" x2="976.7974999999999" y2="892.205111111111" fill="rgb(0, 0, 0)" stroke="rgb(153, 153, 153)" stroke-width="1.5px"></line></g></g><g><g><line x1="-16936293.89796296" y1="0" x2="-16936293.89796296" y2="364.993" fill="rgb(0, 0, 0)" stroke="rgb(153, 153, 153)" stroke-width="1.5px"></line></g></g><g><g><g><g><g><path stroke="rgb(255, 112, 67)" stroke-width="2px" d="M85.72602980403806,221.5779716680845L99.06643062379113,218.30709581983425L112.32835601476336,193.7007878963024L125.60768689205244,167.3353412420442L138.8545884943158,157.10466640012132L152.08125069158947,152.76657708542973L165.25752541288577,154.46611610953104L178.45418023016975,158.46552890844606L191.67567705794752,164.25547311214532L204.88874247520573,171.49560724849906L218.11109349832816,178.33087990925137L231.34750357188784,184.12289514070582L244.56226733047836,191.5973013635289L257.7504706385288,199.32470615496794L270.96974655841046,206.39589897987562L284.22128091424895,210.57126000110875L297.371397159285,215.5168846514048L310.57810133356475,221.12976292087652L323.7538434389403,226.69388449036427L336.90145739408433,233.37953957412688L355.1741831209876,92.39220560611821L373.26607066874993,30.2599474964674L391.3803582332562,8.811967116113234L409.46829638371906,7.261229453206194L427.5070831291152,17.773017445490375L445.5216609735082,35.008046351623705L463.5508807310442,55.5021178679879L481.60564595406373,78.75081857289192L499.61020458953186,101.46752619574401L517.673340926929,122.54630289001533L535.7280157057355,142.53617630971178L553.7167265052211,164.07370482560074L571.7813702461676,181.2432574266102L589.8400044716306,199.28706367802866L607.8994526950103,217.80545276739727L625.9079808264917,231.74198421531383L643.9443758249229,246.37768046338647L661.8962758297324,261.0932418759424L679.9032764589505,274.4255731829621L697.9229694260545,282.874039565015L716.009540863966,295.91057906835033L734.075480971965,302.7238700558964L752.3903938995369,309.8892979436637L770.6731287860082,317.3597973931862L789.081349993287,323.614078967875L807.3503273100307,327.27477295555275L825.777059432896,330.94992944278323L844.1490024614196,335.92374506262576L862.4700354474021,338.5592731538126L880.6754304824331,338.45667346866037" style="fill: none;" fill="none"></path></g></g></g></g><g opacity="0.2"><g><g><g><path stroke="rgb(255, 112, 67)" stroke-width="2px" d="M85.72602980403806,221.5779716680845L99.06643062379113,216.3445703108841L112.32835601476336,170.07873228971167L125.60768689205244,136.3295759766367L138.8545884943158,143.74749732650656L152.08125069158947,146.76543785105818L165.25752541288577,156.8964841066202L178.45418023016975,164.29671116362684L191.67567705794752,172.7945161738396L204.88874247520573,182.2463626467917L218.11109349832816,188.52179348042282L231.34750357188784,192.7793980967734L244.56226733047836,202.78450546460687L257.7504706385288,210.90067455169893L270.96974655841046,216.9943762955136L284.22128091424895,216.8313567448722L297.371397159285,222.93322880424398L310.57810133356475,229.54765521589917L323.7538434389403,235.03921920667756L336.90145739408433,243.40741110441422L355.1741831209876,-119.08106326542953L391.3803582332562,-23.359580001460117L409.46829638371906,4.935141328811726L427.5070831291152,33.540624720626454L445.5216609735082,60.86051621129782L463.5508807310442,86.24317270382251L481.60564595406373,113.62383393801589L499.61020458953186,135.5425667047236L517.673340926929,154.1644562815031L535.7280157057355,172.52097981039685L553.7167265052211,196.37999331418675L571.7813702461676,206.99758427842463L589.8400044716306,226.35277176271546L607.8994526950103,245.58303560558957L625.9079808264917,252.64678102782042L643.9443758249229,268.33122460905713L661.8962758297324,283.16658385817215L679.9032764589505,294.4240700692336L697.9229694260545,295.54673910986054L716.009540863966,315.46538829721345L734.075480971965,312.9438065290187L752.3903938995369,320.63743977014224L770.6731287860082,328.56554656423464L789.081349993287,332.9955013282829L807.3503273100307,332.7658139364985L825.777059432896,336.4626641732852L844.1490024614196,343.38446849211056L862.4700354474021,342.512565290504L880.6754304824331,338.3027739409341" style="fill: none;" fill="none"></path></g></g></g></g></g></g><g transform="translate(51, 364)" clip-path="url(#clip_1)"><clipPath id="clip_1"><rect width="976" height="35"></rect></clipPath><g><g visibility="inherit"><g><g transform="translate(0,0)" style="visibility: inherit;"><text transform="translate(3,14)" style="text-anchor: start; font-family: Roboto, sans-serif; font-size: 12px; font-weight: 200;" fill="rgb(33, 33, 33)" stroke="none" stroke-width="1px">06 AM</text></g><g transform="translate(108.53305555555553,0)" style="visibility: inherit;"><text transform="translate(3,14)" style="text-anchor: start; font-family: Roboto, sans-serif; font-size: 12px; font-weight: 200;" fill="rgb(33, 33, 33)" stroke="none" stroke-width="1px">09 AM</text></g><g transform="translate(217.06611111111107,0)" style="visibility: inherit;"><text transform="translate(3,14)" style="text-anchor: start; font-family: Roboto, sans-serif; font-size: 12px; font-weight: 200;" fill="rgb(33, 33, 33)" stroke="none" stroke-width="1px">12 PM</text></g><g transform="translate(325.59916666666663,0)" style="visibility: inherit;"><text transform="translate(3,14)" style="text-anchor: start; font-family: Roboto, sans-serif; font-size: 12px; font-weight: 200;" fill="rgb(33, 33, 33)" stroke="none" stroke-width="1px">03 PM</text></g><g transform="translate(434.13222222222214,0)" style="visibility: inherit;"><text transform="translate(3,14)" style="text-anchor: start; font-family: Roboto, sans-serif; font-size: 12px; font-weight: 200;" fill="rgb(33, 33, 33)" stroke="none" stroke-width="1px">06 PM</text></g><g transform="translate(542.6652777777778,0)" style="visibility: inherit;"><text transform="translate(3,14)" style="text-anchor: start; font-family: Roboto, sans-serif; font-size: 12px; font-weight: 200;" fill="rgb(33, 33, 33)" stroke="none" stroke-width="1px">09 PM</text></g><g transform="translate(651.1983333333333,0)" style="visibility: inherit;"><text transform="translate(3,14)" style="text-anchor: start; font-family: Roboto, sans-serif; font-size: 12px; font-weight: 200;" fill="rgb(33, 33, 33)" stroke="none" stroke-width="1px">12 AM</text></g><g transform="translate(759.7313888888888,0)" style="visibility: inherit;"><text transform="translate(3,14)" style="text-anchor: start; font-family: Roboto, sans-serif; font-size: 12px; font-weight: 200;" fill="rgb(33, 33, 33)" stroke="none" stroke-width="1px">03 AM</text></g><g transform="translate(868.2644444444443,0)" style="visibility: inherit;"><text transform="translate(3,14)" style="text-anchor: start; font-family: Roboto, sans-serif; font-size: 12px; font-weight: 200;" fill="rgb(33, 33, 33)" stroke="none" stroke-width="1px">06 AM</text></g><g transform="translate(976.7974999999999,0)" style="visibility: hidden;"><text transform="translate(3,14)" style="text-anchor: start; font-family: Roboto, sans-serif; font-size: 12px; font-weight: 200;" fill="rgb(33, 33, 33)" stroke="none" stroke-width="1px">09 AM</text></g></g><g><line x1="0" y1="0" x2="0" y2="17" fill="rgb(0, 0, 0)" stroke="rgb(204, 204, 204)" stroke-width="1px"></line><line x1="108.53305555555553" y1="0" x2="108.53305555555553" y2="17" fill="rgb(0, 0, 0)" stroke="rgb(204, 204, 204)" stroke-width="1px"></line><line x1="217.06611111111107" y1="0" x2="217.06611111111107" y2="17" fill="rgb(0, 0, 0)" stroke="rgb(204, 204, 204)" stroke-width="1px"></line><line x1="325.59916666666663" y1="0" x2="325.59916666666663" y2="17" fill="rgb(0, 0, 0)" stroke="rgb(204, 204, 204)" stroke-width="1px"></line><line x1="434.13222222222214" y1="0" x2="434.13222222222214" y2="17" fill="rgb(0, 0, 0)" stroke="rgb(204, 204, 204)" stroke-width="1px"></line><line x1="542.6652777777778" y1="0" x2="542.6652777777778" y2="17" fill="rgb(0, 0, 0)" stroke="rgb(204, 204, 204)" stroke-width="1px"></line><line x1="651.1983333333333" y1="0" x2="651.1983333333333" y2="17" fill="rgb(0, 0, 0)" stroke="rgb(204, 204, 204)" stroke-width="1px"></line><line x1="759.7313888888888" y1="0" x2="759.7313888888888" y2="17" fill="rgb(0, 0, 0)" stroke="rgb(204, 204, 204)" stroke-width="1px"></line><line x1="868.2644444444443" y1="0" x2="868.2644444444443" y2="17" fill="rgb(0, 0, 0)" stroke="rgb(204, 204, 204)" stroke-width="1px"></line><line x1="976.7974999999999" y1="0" x2="976.7974999999999" y2="17" fill="rgb(0, 0, 0)" stroke="rgb(204, 204, 204)" stroke-width="1px"></line></g><line x1="0" y1="0" x2="976.7974999999999" y2="0" style="visibility: inherit;" fill="rgb(0, 0, 0)" stroke="rgb(204, 204, 204)" stroke-width="1px"></line></g><g visibility="inherit"><g><g transform="translate(325.59916666666663,0)" style="visibility: inherit;"><text transform="translate(0,31)" style="text-anchor: middle; font-family: Roboto, sans-serif; font-size: 12px; font-weight: 200;" fill="rgb(33, 33, 33)" stroke="none" stroke-width="1px">May 29, 2023</text></g><g transform="translate(813.9979166666666,0)" style="visibility: inherit;"><text transform="translate(0,31)" style="text-anchor: middle; font-family: Roboto, sans-serif; font-size: 12px; font-weight: 200;" fill="rgb(33, 33, 33)" stroke="none" stroke-width="1px">May 30, 2023</text></g></g><g><line x1="0" y1="17" x2="0" y2="34" fill="rgb(0, 0, 0)" stroke="rgb(204, 204, 204)" stroke-width="1px"></line><line x1="651.1983333333333" y1="17" x2="651.1983333333333" y2="34" fill="rgb(0, 0, 0)" stroke="rgb(204, 204, 204)" stroke-width="1px"></line><line x1="976.7974999999999" y1="17" x2="976.7974999999999" y2="34" fill="rgb(0, 0, 0)" stroke="rgb(204, 204, 204)" stroke-width="1px"></line></g><line x1="0" y1="17" x2="976.7974999999999" y2="17" style="visibility: inherit;" fill="rgb(0, 0, 0)" stroke="rgb(204, 204, 204)" stroke-width="1px"></line></g></g></g></g></g></svg>